<svg width="20" height="36" viewBox="0 0 20 36" fill="none" xmlns="http://www.w3.org/2000/svg">
<path d="M10.6 15.8C6.06003 14.62 4.60003 13.4 4.60003 11.5C4.60003 9.32 6.62003 7.8 10 7.8C12.84 7.8 14.26 8.88 14.78 10.6C15.02 11.4 15.68 12 16.52 12H17.12C18.44 12 19.38 10.7 18.92 9.46C18.08 7.1 16.12 5.14 13 4.38V3C13 1.34 11.66 0 10 0C8.34003 0 7.00003 1.34 7.00003 3V4.32C3.12003 5.16 3.05176e-05 7.68 3.05176e-05 11.54C3.05176e-05 16.16 3.82003 18.46 9.40003 19.8C14.4 21 15.4 22.76 15.4 24.62C15.4 26 14.42 28.2 10 28.2C6.70003 28.2 5.00003 27.02 4.34003 25.34C4.04003 24.56 3.36003 24 2.54003 24H1.98003C0.64003 24 -0.29997 25.36 0.20003 26.6C1.34003 29.38 4.00003 31.02 7.00003 31.66V33C7.00003 34.66 8.34003 36 10 36C11.66 36 13 34.66 13 33V31.7C16.9 30.96 20 28.7 20 24.6C20 18.92 15.14 16.98 10.6 15.8Z" fill="#1896FC"/>
</svg>
