<svg width="40" height="40" viewBox="0 0 40 40" fill="none" xmlns="http://www.w3.org/2000/svg">
<path d="M4 6C4 4.9 4.9 4 6 4H16C17.1 4 18 3.1 18 2C18 0.9 17.1 0 16 0H4C1.8 0 0 1.8 0 4V16C0 17.1 0.9 18 2 18C3.1 18 4 17.1 4 16V6ZM15.22 22.98L9.3 30.38C8.78 31.04 9.24 32 10.08 32H30C30.82 32 31.3 31.06 30.8 30.4L26.8 25.06C26.4 24.52 25.6 24.52 25.2 25.06L21.94 29.42L16.78 22.98C16.38 22.48 15.62 22.48 15.22 22.98ZM30 13C30 11.34 28.66 10 27 10C25.34 10 24 11.34 24 13C24 14.66 25.34 16 27 16C28.66 16 30 14.66 30 13ZM36 0H24C22.9 0 22 0.9 22 2C22 3.1 22.9 4 24 4H34C35.1 4 36 4.9 36 6V16C36 17.1 36.9 18 38 18C39.1 18 40 17.1 40 16V4C40 1.8 38.2 0 36 0ZM36 34C36 35.1 35.1 36 34 36H24C22.9 36 22 36.9 22 38C22 39.1 22.9 40 24 40H36C38.2 40 40 38.2 40 36V24C40 22.9 39.1 22 38 22C36.9 22 36 22.9 36 24V34ZM2 22C0.9 22 0 22.9 0 24V36C0 38.2 1.8 40 4 40H16C17.1 40 18 39.1 18 38C18 36.9 17.1 36 16 36H6C4.9 36 4 35.1 4 34V24C4 22.9 3.1 22 2 22Z" fill="#1896FC"/>
</svg>
