<svg width="129" height="64" viewBox="0 0 129 64" fill="none" xmlns="http://www.w3.org/2000/svg">
<g clip-path="url(#clip0_171_1145)">
<path fill-rule="evenodd" clip-rule="evenodd" d="M0.759827 52.8961H9.05602V54.5966H6.01798V63.0217H3.79787V54.5966H0.759827V52.8961Z" fill="white"/>
<path fill-rule="evenodd" clip-rule="evenodd" d="M10.1852 63.0217V52.8961H12.4054V56.9154H16.2613V52.8961H18.4814V63.0217H16.2613V58.5772H12.4054V63.0217H10.1852Z" fill="white"/>
<path fill-rule="evenodd" clip-rule="evenodd" d="M20.2345 52.8961H27.0895V54.5966H22.4546V56.9541H26.7779V58.6545H22.4546V61.3598H27.2453V63.0217H20.2345V52.8961Z" fill="white"/>
<path fill-rule="evenodd" clip-rule="evenodd" d="M37.9565 52.8961H40.4492L42.202 60.5096H42.2409L43.8768 52.8961H45.98L43.3704 63.0217H40.9556L39.125 55.3309H39.086L37.0996 63.0217H34.6068L32.114 52.8961H34.412L35.9701 60.5096H36.009L37.9565 52.8961Z" fill="white"/>
<path fill-rule="evenodd" clip-rule="evenodd" d="M46.72 57.9589C46.72 54.983 48.2391 52.7028 51.6276 52.7028C55.0162 52.7028 56.5353 54.983 56.5353 57.9589C56.5353 60.9347 55.0162 63.2149 51.6276 63.2149C48.2391 63.2536 46.72 60.9347 46.72 57.9589ZM49.057 57.9589C49.057 59.698 49.4854 61.669 51.6276 61.669C53.7699 61.669 54.1983 59.698 54.1983 57.9589C54.1983 56.2198 53.7699 54.2487 51.6276 54.2487C49.4465 54.2487 49.057 56.2198 49.057 57.9589Z" fill="white"/>
<path fill-rule="evenodd" clip-rule="evenodd" d="M60.1568 63.0217H57.9756V52.8961H62.299C64.0517 52.8961 65.8434 53.4758 65.8434 55.5241C65.8434 56.8381 64.9865 57.727 63.7401 57.9589V57.9975C65.415 58.1908 65.415 59.1956 65.6097 60.5869C65.7266 61.2439 65.8045 62.442 66.1939 62.983H63.7791C63.5843 62.0941 63.5064 61.1666 63.3896 60.2777C63.3506 59.7367 63.1949 58.9637 62.4548 58.9251H60.1568V63.0217ZM60.1568 57.2632H61.9874C62.9612 57.2632 63.5064 56.7608 63.5064 55.8719C63.5064 54.983 62.9612 54.5966 61.9874 54.5966H60.1568V57.2632Z" fill="white"/>
<path fill-rule="evenodd" clip-rule="evenodd" d="M67.5182 63.0217V52.8961H69.6994V61.3598H74.1396V63.0217H67.5182Z" fill="white"/>
<path fill-rule="evenodd" clip-rule="evenodd" d="M75.308 52.8962H78.7745C81.9684 52.8575 83.9158 54.4421 83.9158 57.959C83.9158 61.4759 81.9294 63.0604 78.7745 63.0218H75.308V52.8962ZM77.5282 61.3599H78.6577C81.2673 61.3986 81.6568 59.5822 81.6568 57.9976C81.6568 56.3744 81.2673 54.5967 78.6577 54.6353H77.5282V61.3599Z" fill="white"/>
<path fill-rule="evenodd" clip-rule="evenodd" d="M89.4859 63.0218V52.8962H93.3029C95.1335 52.7802 97.0031 53.5532 97.0031 55.5242C97.0031 56.645 96.2241 57.4179 95.2114 57.7271V57.7658C96.4968 58.0363 97.4705 58.9252 97.4705 60.3938C97.4705 62.4034 94.9388 63.1377 93.3419 63.0218H89.4859ZM93.3808 61.36C94.3935 61.36 95.1335 61.1667 95.1335 60.0073C95.1335 58.8479 94.4325 58.6546 93.3808 58.6546H91.6671V61.36H93.3808ZM93.3808 56.9542C94.3156 56.9542 94.8219 56.5677 94.8219 55.7561C94.8219 54.9445 94.3156 54.558 93.3808 54.558H91.6671V56.9542H93.3808Z" fill="white"/>
<path fill-rule="evenodd" clip-rule="evenodd" d="M98.1331 63.0217L101.833 52.8961H104.443L107.987 63.0217H105.767L105.027 60.8961H100.976L100.197 63.0217H98.1331ZM104.482 59.1956L103.08 54.8671L101.6 59.1956H104.482Z" fill="white"/>
<path fill-rule="evenodd" clip-rule="evenodd" d="M115.192 63.0217L111.181 54.5966L111.142 54.6352V63.0217H109.116V52.8961H112.349L116.244 60.8574L116.283 60.8188V52.8961H118.308V63.0217H115.192Z" fill="white"/>
<path fill-rule="evenodd" clip-rule="evenodd" d="M122.32 57.2632L125.708 52.8961H128.279L124.54 57.4178L128.591 63.0217H125.864L122.32 57.8816V63.0217H120.1V52.8961H122.32V57.2632Z" fill="white"/>
<path fill-rule="evenodd" clip-rule="evenodd" d="M69.8941 38.2101C72.9321 38.1715 75.8144 37.7464 78.3461 36.8961C78.9693 36.6643 79.5925 36.4324 80.1767 36.2005C79.4756 37.901 78.424 39.3309 77.0608 40.413C74.3733 42.3841 71.2184 43.6981 67.7908 44.2391C68.6867 42.7319 69.3488 40.6449 69.8941 38.2101ZM55.6387 42.3841C55.5608 42.3454 55.5218 42.2681 55.4439 42.2295C54.2365 41.6498 53.7691 39.0217 54.3923 35.0024C56.6903 36.0072 59.183 36.8188 61.7926 37.3986C63.7791 37.8237 65.7655 38.0942 67.674 38.1715C66.7392 42.2681 65.4928 44.3937 64.7138 44.3937C64.6749 44.3937 64.597 44.3937 64.558 44.3937C61.3642 44.3937 58.3262 43.6594 55.6387 42.3841ZM44.5771 29.3599C44.3823 28.6643 44.2655 27.9686 44.2265 27.2343C44.9276 28.2392 45.8234 29.244 46.8751 30.1715C48.433 31.6015 50.3026 32.9155 52.3669 33.9976C51.9385 36.3551 51.8216 38.4807 52.0943 40.2198C48.5109 37.5531 45.8234 33.7271 44.5771 29.3599ZM71.2573 23.6401C71.2573 22.7899 71.2573 21.9783 71.2184 21.1281C73.9059 20.9348 76.3597 20.2778 78.385 19.1184C80.2546 22.7899 81.2673 26.6933 81.2673 30.3261C81.2673 31.3696 81.1894 32.4131 80.9946 33.3406C80.0209 33.9203 78.9303 34.4227 77.684 34.8478C75.4638 35.5821 72.9711 36.0072 70.3225 36.0459C70.9457 32.2971 71.2573 27.8913 71.2573 23.6401ZM62.2211 35.3116C64.2075 35.7367 66.1939 35.9686 68.1024 36.0459C68.6867 32.7996 69.0762 28.6256 69.0762 23.6015C69.0762 22.7513 69.0762 21.9397 69.0372 21.1281C67.7129 21.0894 66.3887 20.9348 65.0644 20.6256C63.3117 20.2392 61.6368 19.6981 60.0789 19.0411C59.7283 19.6595 59.4167 20.3165 59.1051 20.9735C56.885 25.4566 55.5218 29.5145 54.7818 32.8382C57.0408 33.8816 59.5725 34.7319 62.2211 35.3116ZM48.3162 28.6256C49.6015 29.8237 51.1205 30.9058 52.8343 31.8334C53.7301 28.0459 55.2881 23.9107 57.1966 20.0459C57.5082 19.3889 57.8588 18.7319 58.2093 18.1136C56.9629 17.4179 55.8724 16.6063 54.8986 15.7174C53.8859 14.7899 53.107 13.7851 52.5617 12.7802C50.6142 14.1715 48.9004 15.7947 47.5372 17.5725C46.0961 19.4662 45.1224 21.4372 44.616 23.4083C45.2392 25.186 46.4856 26.9638 48.3162 28.6256ZM69.7772 8.8382C72.2311 10.6546 74.4512 12.9735 76.3207 15.6788C76.6713 16.1812 77.0218 16.7223 77.3334 17.2633C75.6196 18.2295 73.4385 18.8479 71.1015 19.0025C70.9068 15.2923 70.4783 11.7754 69.7772 8.8382ZM65.5318 18.5773C63.9738 18.2295 62.4937 17.7657 61.1305 17.186C63.1169 13.7078 65.337 10.6933 67.4792 8.45173C68.1414 11.0798 68.7256 14.6353 68.9593 19.0025C67.8298 18.9638 66.6613 18.8479 65.5318 18.5773ZM56.3787 14.1329C55.4829 13.3213 54.8207 12.4324 54.3533 11.5822C56.3787 10.3841 58.5988 9.41791 60.9747 8.68361C62.3769 8.25849 63.818 7.94932 65.2202 7.71743C63.1559 9.99762 61.1305 12.8962 59.222 16.1812C58.1704 15.6015 57.1966 14.9058 56.3787 14.1329ZM51.7437 7.3696C51.7048 7.48555 51.6658 7.60149 51.6658 7.67878C51.4321 8.68362 51.4711 9.72709 51.7437 10.7319C49.4457 12.3165 47.4204 14.1715 45.8234 16.2971C45.3171 16.9541 44.8887 17.5725 44.4992 18.2295C45.6676 13.901 48.2772 10.0749 51.7437 7.3696ZM53.7691 8.14255C53.6912 8.60632 53.6522 9.07009 53.6912 9.53386C55.7555 8.37444 57.9756 7.40825 60.3515 6.7126C61.6368 6.32613 62.9222 6.0556 64.2075 5.82371C61.1305 4.70294 58.2483 4.54835 55.7166 5.28265C54.6649 6.0556 54.0028 7.02178 53.7691 8.14255ZM71.1794 5.3213C71.9195 4.85753 72.5816 4.5097 73.1658 4.39376C74.2564 4.81888 75.308 5.35994 76.3207 6.0556C74.6849 5.66912 72.9711 5.43724 71.1794 5.3213ZM67.5571 3.0411C68.414 3.1184 69.3488 3.27299 70.3225 3.50487C69.7383 3.81405 69.1151 4.23917 68.4919 4.70294C68.1803 4.08458 67.8687 3.54352 67.5571 3.0411ZM65.2202 3.89134C64.2465 3.50487 63.2727 3.23434 62.3379 3.0411C63.078 2.96381 63.857 2.92516 64.6359 2.92516C64.9865 2.92516 65.4539 3.35028 65.9213 4.20052C65.6876 4.08458 65.4539 3.96864 65.2202 3.89134ZM41.6169 23.6788C41.6169 25.843 41.9285 27.9686 42.5127 29.9397C42.5517 30.0942 42.5906 30.2102 42.6296 30.3261C42.6296 30.3648 42.6296 30.3648 42.6685 30.4034C45.5897 39.756 54.3533 46.558 64.7138 46.558C69.5046 46.558 73.9448 45.0894 77.645 42.6159C77.684 42.6159 77.7229 42.5773 77.7619 42.5387C77.9955 42.3841 78.1903 42.2295 78.385 42.0749C82.6305 38.9444 85.7465 34.4614 87.0707 29.2054C87.1486 28.9735 87.2265 28.7029 87.2655 28.4711C87.2655 28.3938 87.2655 28.3551 87.2655 28.2778C87.5771 26.7706 87.7329 25.2247 87.7329 23.6401C87.7329 20.5484 87.1097 17.5339 85.9023 14.7126C85.6686 14.1715 85.0454 13.901 84.5001 14.1329C83.9548 14.3648 83.6821 14.9831 83.9158 15.5242C85.0064 18.0749 85.5517 20.8189 85.5517 23.6015C85.5517 25.302 85.318 27.0025 84.9285 28.587C84.6169 29.5918 84.0716 30.5194 83.2927 31.3696C83.2927 31.0218 83.3316 30.6353 83.3316 30.2875C83.3316 26.1909 82.2021 21.901 80.0988 17.843C81.6568 16.529 82.6305 14.9058 82.9811 13.0894C83.0979 12.5097 82.7084 11.9686 82.1242 11.8527C81.5399 11.7368 80.9946 12.1232 80.8778 12.7029C80.6441 13.901 80.0209 15.0218 79.0472 15.9493C78.7356 15.4469 78.424 14.9445 78.0734 14.4421C76.2039 11.6981 73.9448 9.34062 71.491 7.4469C74.7238 7.64014 77.7229 8.45173 80.1378 9.76574C80.5273 9.95898 81.0336 9.95898 81.3841 9.68845C81.8515 9.30197 81.8905 8.64497 81.5399 8.1812C78.0735 3.38893 72.1142 0.722261 64.7138 0.722261C51.9774 0.760909 41.6169 11.0411 41.6169 23.6788Z" fill="white"/>
</g>
<defs>
<clipPath id="clip0_171_1145">
<rect width="129" height="63" fill="white" transform="translate(0 0.5)"/>
</clipPath>
</defs>
</svg>
