<svg width="22" height="18" viewBox="0 0 22 18" fill="none" xmlns="http://www.w3.org/2000/svg">
<path d="M21.6603 0.492795C21.3915 0.174978 20.989 0 20.5268 0C20.2755 0 20.0093 0.0511299 19.7357 0.152253L1.11319 7.02687C0.124912 7.3916 -0.00818993 7.93893 0.000370221 8.23273C0.00893037 8.52652 0.173923 9.06574 1.18201 9.37593C1.18805 9.37771 1.19409 9.3795 1.20014 9.38112L5.06295 10.4501L7.15197 16.227C7.4368 17.0146 8.07613 17.5038 8.82069 17.5038C9.29016 17.5038 9.7519 17.3136 10.1561 16.9539L12.5454 14.8264L16.0109 17.5249C16.0112 17.5252 16.0117 17.5254 16.0121 17.5257L16.045 17.5514C16.048 17.5536 16.0512 17.5561 16.0542 17.5583C16.4394 17.8473 16.8599 17.9998 17.2706 18H17.2707C18.0732 18 18.7122 17.4256 18.8984 16.5367L21.9496 1.96647C22.0722 1.38164 21.9694 0.858333 21.6603 0.492795ZM6.3552 10.2471L13.8077 6.56524L9.1673 11.3336C9.09126 11.4117 9.03738 11.5073 9.01086 11.6114L8.11607 15.1164L6.3552 10.2471ZM9.28277 16.0368C9.25189 16.0642 9.22084 16.0887 9.18979 16.1113L10.02 12.8597L11.5301 14.0357L9.28277 16.0368ZM20.6862 1.71894L17.635 16.2893C17.6056 16.4288 17.5118 16.7532 17.2706 16.7532C17.1514 16.7532 17.0017 16.6904 16.8484 16.5763L12.9215 13.5186C12.921 13.5181 12.9203 13.5176 12.9197 13.5173L10.5831 11.6977L17.2937 4.80199C17.5086 4.58124 17.5281 4.24313 17.3399 4.00063C17.1516 3.75813 16.8103 3.68184 16.5312 3.81981L5.49398 9.27269L1.57863 8.18939L20.1955 1.31688C20.3527 1.25877 20.4625 1.2466 20.5268 1.2466C20.5662 1.2466 20.6364 1.25114 20.6624 1.28214C20.6967 1.32256 20.7403 1.46037 20.6862 1.71894Z" fill="white"/>
</svg>
