<!-- Generated by IcoMoon.io -->
<svg version="1.1" xmlns="http://www.w3.org/2000/svg" width="512" height="512" viewBox="0 0 512 512">
<title>mobile</title>
<g id="icomoon-ignore">
</g>
<path d="M230.4 76.856l-120.496 120.496c-4.801 4.801-11.313 7.498-18.102 7.498h-40.602v102.401h40.602c6.79 0 13.301 2.695 18.102 7.498l120.496 120.494v-358.388zM194.199 40.649c32.252-32.252 87.401-9.421 87.401 36.201v358.401c0 45.619-55.149 68.452-87.401 36.201l-113.001-113.001h-29.998c-13.579 0-26.602-5.397-36.204-14.997-9.602-9.603-14.996-22.625-14.996-36.204v-102.401c0-13.579 5.394-26.602 14.996-36.204s22.625-14.996 36.204-14.996h29.998l113.001-113.001zM400.817 75.030c9.997-9.998 26.207-9.998 36.204-0.001 23.772 23.772 42.629 51.993 55.495 83.053 12.864 31.060 19.487 64.349 19.487 97.969 0 33.618-6.623 66.908-19.486 97.966-12.866 31.060-31.724 59.282-55.495 83.054-9.997 9.997-26.207 9.997-36.204 0-9.997-10-9.997-26.207 0-36.206 19.018-19.015 34.104-41.592 44.396-66.442 10.291-24.848 15.591-51.479 15.591-78.372 0-26.896-5.299-53.528-15.591-78.375s-25.377-47.425-44.395-66.442c-9.997-9.998-9.997-26.206 0-36.204zM328.418 147.429c9.997-9.999 26.204-10 36.204-0.005 14.267 14.263 25.584 31.198 33.308 49.837 7.721 18.638 11.694 38.615 11.694 58.79 0 20.173-3.973 40.151-11.694 58.788-7.724 18.639-19.041 35.574-33.308 49.838-10 9.994-26.207 9.991-36.204-0.005-9.997-10-9.994-26.209 0.005-36.204 9.51-9.51 17.058-20.8 22.203-33.226 5.148-12.423 7.798-25.743 7.798-39.191 0-13.451-2.649-26.768-7.798-39.194-5.146-12.425-12.692-23.715-22.203-33.224-10-9.996-10.002-26.205-0.005-36.204z"></path>
</svg>
