<svg width="26" height="18" viewBox="0 0 26 18" fill="none" xmlns="http://www.w3.org/2000/svg">
<mask id="path-1-inside-1_161_640" fill="white">
<path fill-rule="evenodd" clip-rule="evenodd" d="M22.8369 0.538442C23.9137 0.828372 24.7628 1.67745 25.0528 2.75434C25.5912 4.72172 25.5705 8.82217 25.5705 8.82217C25.5705 8.82217 25.5705 12.9019 25.0528 14.8693C24.7628 15.9462 23.9137 16.7952 22.8369 17.0852C20.8695 17.6029 12.9999 17.6029 12.9999 17.6029C12.9999 17.6029 5.1511 17.6029 3.16301 17.0645C2.08613 16.7745 1.23705 15.9255 0.947115 14.8486C0.429382 12.9019 0.429382 8.80146 0.429382 8.80146C0.429382 8.80146 0.429382 4.72172 0.947115 2.75434C1.23705 1.67745 2.10684 0.807663 3.16301 0.517733C5.1304 0 12.9999 0 12.9999 0C12.9999 0 20.8695 0 22.8369 0.538442ZM17.0383 8.65766L10.4942 12.4268V4.88857L17.0383 8.65766Z"/>
</mask>
<path d="M25.0528 2.75434L23.894 3.06631L23.8953 3.07111L25.0528 2.75434ZM22.8369 0.538442L22.5201 1.69589L22.5249 1.69718L22.8369 0.538442ZM25.5705 8.82217L24.3705 8.8161V8.82217H25.5705ZM25.0528 14.8693L26.2115 15.1813L26.2132 15.1747L25.0528 14.8693ZM22.8369 17.0852L23.1423 18.2457L23.1488 18.2439L22.8369 17.0852ZM3.16301 17.0645L3.47671 15.9062L3.47498 15.9057L3.16301 17.0645ZM0.947115 14.8486L-0.212577 15.157L-0.211624 15.1605L0.947115 14.8486ZM0.947115 2.75434L-0.211643 2.44236L-0.213374 2.44895L0.947115 2.75434ZM3.16301 0.517733L2.8576 -0.642822L2.84535 -0.639459L3.16301 0.517733ZM10.4942 12.4268H9.29415V14.5027L11.0931 13.4666L10.4942 12.4268ZM17.0383 8.65766L17.6372 9.69752L19.4427 8.65766L17.6372 7.6178L17.0383 8.65766ZM10.4942 4.88857L11.0931 3.84871L9.29415 2.81263V4.88857H10.4942ZM26.2115 2.44237C25.8104 0.952497 24.6387 -0.219178 23.1488 -0.620297L22.5249 1.69718C23.1888 1.87592 23.7153 2.40241 23.894 3.06631L26.2115 2.44237ZM25.5705 8.82217C26.7705 8.82823 26.7705 8.82813 26.7705 8.82802C26.7705 8.82796 26.7705 8.82784 26.7705 8.82772C26.7705 8.82749 26.7705 8.8272 26.7705 8.82685C26.7705 8.82614 26.7705 8.82518 26.7705 8.82398C26.7705 8.82157 26.7705 8.81818 26.7705 8.81383C26.7705 8.80514 26.7706 8.79261 26.7706 8.77643C26.7706 8.74408 26.7706 8.69713 26.7703 8.63711C26.7698 8.5171 26.7685 8.34466 26.7652 8.13203C26.7585 7.70732 26.744 7.11952 26.7121 6.46743C26.6502 5.20049 26.5181 3.56273 26.2102 2.43757L23.8953 3.07111C24.1258 3.91333 24.2526 5.30949 24.315 6.58461C24.3452 7.20355 24.3591 7.76382 24.3655 8.16944C24.3686 8.37196 24.3699 8.53523 24.3703 8.64715C24.3706 8.7031 24.3706 8.74617 24.3706 8.77484C24.3706 8.78918 24.3706 8.79991 24.3705 8.80685C24.3705 8.81032 24.3705 8.81284 24.3705 8.81439C24.3705 8.81517 24.3705 8.8157 24.3705 8.81599C24.3705 8.81613 24.3705 8.81621 24.3705 8.81623C24.3705 8.81624 24.3705 8.81621 24.3705 8.81622C24.3705 8.81617 24.3705 8.8161 25.5705 8.82217ZM26.2132 15.1747C26.5073 14.0571 26.6397 12.4314 26.7042 11.1692C26.7374 10.5206 26.7539 9.93612 26.7622 9.51385C26.7663 9.30246 26.7684 9.13106 26.7694 9.01182C26.7699 8.95219 26.7702 8.90556 26.7703 8.87346C26.7704 8.8574 26.7704 8.84498 26.7705 8.83637C26.7705 8.83206 26.7705 8.82871 26.7705 8.82633C26.7705 8.82515 26.7705 8.8242 26.7705 8.82351C26.7705 8.82316 26.7705 8.82287 26.7705 8.82265C26.7705 8.82254 26.7705 8.82242 26.7705 8.82236C26.7705 8.82226 26.7705 8.82217 25.5705 8.82217C24.3705 8.82217 24.3705 8.82211 24.3705 8.82206C24.3705 8.82207 24.3705 8.82204 24.3705 8.82205C24.3705 8.82208 24.3705 8.82216 24.3705 8.82231C24.3705 8.82261 24.3705 8.82314 24.3705 8.82393C24.3705 8.82549 24.3705 8.82802 24.3705 8.83149C24.3705 8.83844 24.3704 8.84916 24.3704 8.86347C24.3702 8.89208 24.37 8.93503 24.3695 8.99079C24.3685 9.10236 24.3666 9.26506 24.3626 9.46688C24.3547 9.87104 24.3389 10.4294 24.3073 11.0467C24.2424 12.3162 24.1159 13.7141 23.8923 14.5639L26.2132 15.1747ZM23.1488 18.2439C24.6387 17.8428 25.8104 16.6711 26.2115 15.1813L23.894 14.5573C23.7153 15.2212 23.1888 15.7477 22.5249 15.9264L23.1488 18.2439ZM12.9999 17.6029C12.9999 18.8029 13 18.8029 13.0001 18.8029C13.0002 18.8029 13.0003 18.8029 13.0004 18.8029C13.0007 18.8029 13.0011 18.8029 13.0017 18.8029C13.0027 18.8029 13.0043 18.8029 13.0063 18.8029C13.0103 18.8029 13.0161 18.8029 13.0238 18.8029C13.0392 18.8029 13.0619 18.8028 13.0914 18.8028C13.1504 18.8027 13.2369 18.8024 13.3475 18.8019C13.5685 18.8009 13.886 18.7988 14.2729 18.7948C15.0463 18.7866 16.0993 18.7703 17.2157 18.7377C18.3302 18.7051 19.5172 18.656 20.5557 18.5814C21.5612 18.5093 22.5277 18.4074 23.1422 18.2457L22.5315 15.9247C22.1623 16.0218 21.4074 16.1141 20.3839 16.1876C19.3936 16.2586 18.2444 16.3066 17.1456 16.3387C16.0486 16.3708 15.0113 16.3869 14.2477 16.3949C13.8661 16.3989 13.5534 16.4009 13.3364 16.4019C13.2279 16.4024 13.1434 16.4027 13.0862 16.4028C13.0576 16.4029 13.0358 16.4029 13.0213 16.4029C13.014 16.4029 13.0086 16.4029 13.005 16.4029C13.0032 16.4029 13.0019 16.4029 13.0011 16.4029C13.0006 16.4029 13.0003 16.4029 13.0001 16.4029C13 16.4029 13 16.4029 12.9999 16.4029C12.9999 16.4029 12.9999 16.4029 12.9999 17.6029ZM2.84931 18.2227C3.4713 18.3912 4.44239 18.4973 5.44952 18.5724C6.48987 18.65 7.67697 18.7012 8.79049 18.7351C9.90595 18.769 10.9574 18.786 11.7293 18.7944C12.1155 18.7987 12.4324 18.8008 12.653 18.8018C12.7633 18.8024 12.8497 18.8026 12.9086 18.8028C12.938 18.8028 12.9607 18.8029 12.976 18.8029C12.9837 18.8029 12.9896 18.8029 12.9936 18.8029C12.9956 18.8029 12.9971 18.8029 12.9982 18.8029C12.9987 18.8029 12.9991 18.8029 12.9994 18.8029C12.9996 18.8029 12.9997 18.8029 12.9998 18.8029C12.9999 18.8029 12.9999 18.8029 12.9999 17.6029C12.9999 16.4029 12.9999 16.4029 12.9999 16.4029C12.9999 16.4029 12.9998 16.4029 12.9997 16.4029C12.9996 16.4029 12.9992 16.4029 12.9988 16.4029C12.998 16.4029 12.9967 16.4029 12.9949 16.4029C12.9913 16.4029 12.9859 16.4029 12.9787 16.4029C12.9642 16.4029 12.9425 16.4028 12.914 16.4028C12.857 16.4027 12.7727 16.4024 12.6646 16.4019C12.4482 16.4008 12.1363 16.3987 11.7557 16.3946C10.9938 16.3862 9.95878 16.3695 8.86352 16.3362C7.76633 16.3028 6.61845 16.2529 5.62799 16.1791C4.60432 16.1027 3.84877 16.007 3.47671 15.9062L2.84931 18.2227ZM-0.211624 15.1605C0.189495 16.6504 1.36117 17.8221 2.85104 18.2232L3.47498 15.9057C2.81108 15.727 2.2846 15.2005 2.10585 14.5366L-0.211624 15.1605ZM0.429382 8.80146C-0.770618 8.80146 -0.770618 8.80155 -0.770618 8.80165C-0.770618 8.80171 -0.770618 8.80183 -0.770618 8.80194C-0.770618 8.80217 -0.770617 8.80245 -0.770617 8.8028C-0.770617 8.8035 -0.770616 8.80444 -0.770615 8.80563C-0.770613 8.80802 -0.770608 8.81138 -0.770599 8.8157C-0.770582 8.82435 -0.770548 8.83683 -0.770481 8.85295C-0.770347 8.8852 -0.770083 8.93203 -0.769561 8.99192C-0.768516 9.11166 -0.766438 9.28377 -0.7623 9.49596C-0.754035 9.91982 -0.737502 10.5062 -0.704342 11.1562C-0.639875 12.4197 -0.507617 14.0476 -0.212571 15.157L2.1068 14.5401C1.88411 13.7028 1.75751 12.3072 1.69254 11.0339C1.66098 10.4153 1.64516 9.85499 1.63724 9.44917C1.63329 9.24653 1.63133 9.08309 1.63035 8.97098C1.62986 8.91494 1.62962 8.87178 1.6295 8.84301C1.62944 8.82863 1.62941 8.81784 1.6294 8.81085C1.62939 8.80736 1.62939 8.80481 1.62938 8.80324C1.62938 8.80245 1.62938 8.80191 1.62938 8.80161C1.62938 8.80146 1.62938 8.80137 1.62938 8.80135C1.62938 8.80133 1.62938 8.80136 1.62938 8.80136C1.62938 8.8014 1.62938 8.80146 0.429382 8.80146ZM-0.213374 2.44895C-0.507477 3.56654 -0.639807 5.1922 -0.704336 6.4544C-0.737496 7.10302 -0.754031 7.6875 -0.762298 8.10977C-0.766437 8.32117 -0.768516 8.49257 -0.76956 8.6118C-0.770083 8.67143 -0.770347 8.71806 -0.770481 8.75016C-0.770548 8.76622 -0.770582 8.77864 -0.770599 8.78726C-0.770608 8.79156 -0.770613 8.79491 -0.770615 8.79729C-0.770616 8.79848 -0.770617 8.79942 -0.770617 8.80011C-0.770617 8.80046 -0.770618 8.80075 -0.770618 8.80097C-0.770618 8.80108 -0.770618 8.8012 -0.770618 8.80126C-0.770618 8.80137 -0.770618 8.80146 0.429382 8.80146C1.62938 8.80146 1.62938 8.80152 1.62938 8.80156C1.62938 8.80155 1.62938 8.80158 1.62938 8.80157C1.62938 8.80154 1.62938 8.80146 1.62938 8.80131C1.62938 8.80102 1.62938 8.80048 1.62938 8.7997C1.62939 8.79813 1.62939 8.7956 1.6294 8.79213C1.62941 8.78518 1.62944 8.77446 1.6295 8.76015C1.62962 8.73154 1.62986 8.68859 1.63035 8.63283C1.63133 8.52126 1.63329 8.35857 1.63724 8.15675C1.64515 7.75258 1.66098 7.19417 1.69253 6.57694C1.75744 5.30742 1.88397 3.90952 2.1076 3.05973L-0.213374 2.44895ZM2.84535 -0.639459C1.3772 -0.236436 0.188523 0.956111 -0.211624 2.44237L2.10585 3.06631C2.28557 2.3988 2.83648 1.85176 3.48067 1.67492L2.84535 -0.639459ZM12.9999 0C12.9999 -1.2 12.9999 -1.2 12.9998 -1.2C12.9997 -1.2 12.9996 -1.2 12.9994 -1.2C12.9991 -1.2 12.9987 -1.2 12.9982 -1.2C12.9971 -1.2 12.9956 -1.2 12.9936 -1.2C12.9896 -1.2 12.9837 -1.19999 12.976 -1.19998C12.9606 -1.19997 12.938 -1.19993 12.9085 -1.19987C12.8494 -1.19974 12.763 -1.19949 12.6524 -1.19898C12.4313 -1.19796 12.1139 -1.19592 11.7269 -1.19184C10.9536 -1.1837 9.90054 -1.16741 8.78417 -1.13477C7.66969 -1.10218 6.48263 -1.05304 5.44412 -0.978503C4.43871 -0.906344 3.47212 -0.804467 2.85762 -0.642757L3.4684 1.67822C3.8376 1.58107 4.59247 1.48879 5.61592 1.41534C6.60627 1.34426 7.75548 1.29633 8.85431 1.2642C9.95125 1.23213 10.9885 1.21606 11.7522 1.20802C12.1338 1.20401 12.4465 1.202 12.6635 1.201C12.772 1.2005 12.8565 1.20025 12.9137 1.20012C12.9423 1.20006 12.9641 1.20003 12.9786 1.20002C12.9858 1.20001 12.9913 1.2 12.9948 1.2C12.9966 1.2 12.998 1.2 12.9988 1.2C12.9992 1.2 12.9995 1.2 12.9997 1.2C12.9998 1.2 12.9999 1.2 12.9999 1.2C12.9999 1.2 12.9999 1.2 12.9999 0ZM23.1536 -0.618993C22.5349 -0.788326 21.5644 -0.894483 20.5592 -0.969516C19.5197 -1.0471 18.3319 -1.09824 17.2171 -1.13214C16.1003 -1.1661 15.047 -1.18305 14.2734 -1.19151C13.8864 -1.19575 13.5688 -1.19787 13.3477 -1.19893C13.2371 -1.19947 13.1506 -1.19973 13.0915 -1.19987C13.062 -1.19993 13.0393 -1.19997 13.0239 -1.19998C13.0162 -1.19999 13.0103 -1.2 13.0063 -1.2C13.0043 -1.2 13.0028 -1.2 13.0017 -1.2C13.0012 -1.2 13.0007 -1.2 13.0005 -1.2C13.0003 -1.2 13.0002 -1.2 13.0001 -1.2C13 -1.2 12.9999 -1.2 12.9999 0C12.9999 1.2 12.9999 1.2 12.9999 1.2C13 1.2 13 1.2 13.0001 1.2C13.0003 1.2 13.0006 1.2 13.001 1.2C13.0019 1.2 13.0032 1.2 13.005 1.2C13.0086 1.2 13.014 1.20001 13.0212 1.20002C13.0357 1.20003 13.0575 1.20006 13.0861 1.20013C13.1432 1.20026 13.2277 1.20052 13.3362 1.20104C13.5531 1.20208 13.8657 1.20416 14.2472 1.20834C15.0106 1.2167 16.0476 1.23341 17.1441 1.26675C18.2427 1.30016 19.3911 1.34998 20.3805 1.42383C21.4041 1.50023 22.1551 1.59599 22.5201 1.69588L23.1536 -0.618993ZM11.0931 13.4666L17.6372 9.69752L16.4394 7.6178L9.89524 11.3869L11.0931 13.4666ZM9.29415 4.88857V12.4268H11.6942V4.88857H9.29415ZM17.6372 7.6178L11.0931 3.84871L9.89524 5.92843L16.4394 9.69752L17.6372 7.6178Z" fill="white" mask="url(#path-1-inside-1_161_640)"/>
</svg>
